<?xml version="1.0" encoding="UTF-8" standalone="no"?>
<svg
   width="16"
   height="16"
   version="1.1"
   id="svg7"
   sodipodi:docname="stock_trash_full.svg"
   inkscape:version="1.1.2 (0a00cf5339, 2022-02-04)"
   xmlns:inkscape="http://www.inkscape.org/namespaces/inkscape"
   xmlns:sodipodi="http://sodipodi.sourceforge.net/DTD/sodipodi-0.dtd"
   xmlns="http://www.w3.org/2000/svg"
   xmlns:svg="http://www.w3.org/2000/svg">
  <sodipodi:namedview
     id="namedview9"
     pagecolor="#ffffff"
     bordercolor="#666666"
     borderopacity="1.0"
     inkscape:pageshadow="2"
     inkscape:pageopacity="0.0"
     inkscape:pagecheckerboard="0"
     showgrid="false"
     inkscape:zoom="39.375"
     inkscape:cx="-1.7142857"
     inkscape:cy="8"
     inkscape:window-width="1920"
     inkscape:window-height="998"
     inkscape:window-x="0"
     inkscape:window-y="0"
     inkscape:window-maximized="1"
     inkscape:current-layer="svg7" />
  <defs
     id="defs3">
    <style
       id="current-color-scheme"
       type="text/css">.ColorScheme-Text { color:#dedede; }</style>
  </defs>
  <path
     d="m6 0c-0.554 0-1 0.446-1 1v1h-4v1h1v12c0 0.554 0.446 1 1 1h9c0.554 0 1-0.446 1-1v-12h1v-1h-4v-1c0-0.554-0.446-1-1-1h-3zm0 1h3v1h-3v-1zm-1 4h1v8h-1v-8zm2 0h1v8h-1v-8zm2 0h1v8h-1v-8z"
     style="fill:currentColor"
     class="ColorScheme-Text"
     id="path5" />
</svg>
